<?xml version="1.0" standalone="no"?><!DOCTYPE svg PUBLIC "-//W3C//DTD SVG 1.1//EN" "http://www.w3.org/Graphics/SVG/1.1/DTD/svg11.dtd"><svg t="1612767512380" class="icon" viewBox="0 0 1024 1024" version="1.1" xmlns="http://www.w3.org/2000/svg" p-id="2181" xmlns:xlink="http://www.w3.org/1999/xlink" width="256" height="256"><defs><style type="text/css"></style></defs><path d="M940.373333 112.426667c-0.213333-2.133333-0.64-4.16-1.28-6.08-1.493333-4.906667-4.16-9.6-8-13.44a31.808 31.808 0 0 0-19.52-9.28c-2.986667-0.213333-5.973333-0.106667-8.853333 0.426666-0.96 0.106667-1.92 0.32-2.88 0.64-1.173333 0.32-2.346667 0.746667-3.413333 1.173334L107.626667 389.226667a32.042667 32.042667 0 0 0 0.213333 59.84l338.666667 128.426666 128.533333 338.666667a31.957333 31.957333 0 0 0 29.76 20.693333h0.106667c13.226667 0 25.066667-8.213333 29.866666-20.48l303.36-788.8c0.426667-1.066667 0.853333-2.24 1.173334-3.413333 0.32-0.96 0.533333-1.92 0.64-2.88 0.533333-2.88 0.64-5.866667 0.426666-8.853333z m-161.066666 87.04L463.36 515.413333 208.853333 418.88l570.453334-219.413333zM605.12 815.146667l-96.533333-254.506667 315.946666-315.946667-219.413333 570.453334z" p-id="2182" fill="#cdcdcd"></path></svg>