<?xml version="1.0" standalone="no"?><!DOCTYPE svg PUBLIC "-//W3C//DTD SVG 1.1//EN" "http://www.w3.org/Graphics/SVG/1.1/DTD/svg11.dtd"><svg t="1608467954520" class="icon" viewBox="0 0 1024 1024" version="1.1" xmlns="http://www.w3.org/2000/svg" p-id="3743" xmlns:xlink="http://www.w3.org/1999/xlink" width="256" height="256"><defs><style type="text/css"></style></defs><path d="M510.487693 6.444629c-280.969116 0-508.776157 227.743858-508.776157 508.777176 0 280.969116 227.806021 508.778195 508.776157 508.778195 280.970135 0 508.779214-227.809079 508.779214-508.778195C1019.266907 234.189506 791.457828 6.444629 510.487693 6.444629zM642.835958 781.59777 642.835958 704.894047 226.040474 704.894047c-22.981156 0-41.549718-35.712458-41.549718-54.035423 0-18.194562 18.568562-53.966126 41.549718-53.966126l416.795483 0 0-76.704742 193.712874 130.670868L642.835958 781.59777zM794.933892 433.55315 378.200573 433.55315l0 76.700666L184.490756 379.519765 378.200573 248.847878l0 76.637483 416.73332 0c22.981156 0 41.614939 35.776659 41.614939 54.034404C836.548831 397.775471 817.915049 433.55315 794.933892 433.55315z" p-id="3744" ></path></svg>