<?xml version="1.0" standalone="no"?><!DOCTYPE svg PUBLIC "-//W3C//DTD SVG 1.1//EN" "http://www.w3.org/Graphics/SVG/1.1/DTD/svg11.dtd"><svg t="1612767583145" class="icon" viewBox="0 0 1024 1024" version="1.1" xmlns="http://www.w3.org/2000/svg" p-id="3069" xmlns:xlink="http://www.w3.org/1999/xlink" width="256" height="256"><defs><style type="text/css"></style></defs><path d="M928 864H128V160c0-19.2-12.8-32-32-32s-32 12.8-32 32v736c0 19.2 12.8 32 32 32h832c19.2 0 32-12.8 32-32s-12.8-32-32-32z" p-id="3070" fill="#cdcdcd"></path><path d="M352 800H256c-19.2 0-32-12.8-32-32V320c0-19.2 12.8-32 32-32h96c19.2 0 32 12.8 32 32v448c0 19.2-12.8 32-32 32zM608 800h-96c-19.2 0-32-12.8-32-32V448c0-19.2 12.8-32 32-32h96c19.2 0 32 12.8 32 32v320c0 19.2-12.8 32-32 32zM864 800h-96c-19.2 0-32-12.8-32-32V224c0-19.2 12.8-32 32-32h96c19.2 0 32 12.8 32 32v544c0 19.2-12.8 32-32 32z" p-id="3071" fill="#cdcdcd"></path></svg>