<?xml version="1.0" standalone="no"?><!DOCTYPE svg PUBLIC "-//W3C//DTD SVG 1.1//EN" "http://www.w3.org/Graphics/SVG/1.1/DTD/svg11.dtd"><svg t="1602299504558" class="icon" viewBox="0 0 1024 1024" version="1.1" xmlns="http://www.w3.org/2000/svg" p-id="6299" xmlns:xlink="http://www.w3.org/1999/xlink" width="200" height="200"><defs><style type="text/css"></style></defs><path d="M507.904 372.224m-160.256 0a160.256 160.256 0 1 0 320.512 0 160.256 160.256 0 1 0-320.512 0Z" p-id="6300"></path><path d="M921.6 0H102.4a102.4 102.4 0 0 0-102.4 102.4v819.2a102.4 102.4 0 0 0 102.4 102.4h819.2a102.4 102.4 0 0 0 102.4-102.4V102.4a102.4 102.4 0 0 0-102.4-102.4z m-140.8 870.4a29.696 29.696 0 0 1-29.184-34.304 239.104 239.104 0 0 0-478.208 4.608 29.696 29.696 0 1 1-59.392 0A298.496 298.496 0 0 1 401.92 563.2a218.624 218.624 0 1 1 215.552 0 298.496 298.496 0 0 1 193.024 279.04 29.696 29.696 0 0 1-29.696 28.16z" p-id="6301"></path></svg>