<?xml version="1.0" standalone="no"?><!DOCTYPE svg PUBLIC "-//W3C//DTD SVG 1.1//EN" "http://www.w3.org/Graphics/SVG/1.1/DTD/svg11.dtd"><svg t="1613357876920" class="icon" viewBox="0 0 1024 1024" version="1.1" xmlns="http://www.w3.org/2000/svg" p-id="2205" xmlns:xlink="http://www.w3.org/1999/xlink" width="256" height="256"><defs><style type="text/css"></style></defs><path d="M904.533333 85.333333c18.88 0 34.133333 15.253333 34.133334 34.133334v785.066666c0 18.88-15.253333 34.133333-34.133334 34.133334H119.466667c-18.88 0-34.133333-15.253333-34.133334-34.133334V119.466667C85.333333 100.586667 100.586667 85.333333 119.466667 85.333333z m-147.52 391.189334h-42.218666v140.245333l-0.128 2.346667c-1.216 9.962667-10.133333 17.706667-20.970667 17.706666l-328.234667-0.021333v-58.517333a4.266667 4.266667 0 0 0-6.72-3.477334l-100.949333 71.893334a4.266667 4.266667 0 0 0 0 6.933333l100.949333 71.872a4.266667 4.266667 0 0 0 6.741334-3.477333l-0.021334-45.162667h328.234667l3.733333-0.085333c33.237333-1.834667 59.584-28.010667 59.584-60.010667v-140.245333zM662.784 277.333333a4.266667 4.266667 0 0 0-4.266667 4.266667v58.496h-331.52l-3.712 0.128c-33.237333 1.813333-59.605333 27.989333-59.605333 59.989333v140.266667h42.218667V400.213333l0.128-2.346666c1.237333-9.941333 10.154667-17.685333 20.970666-17.685334h331.52v45.162667a4.266667 4.266667 0 0 0 6.741334 3.477333l100.949333-71.893333a4.266667 4.266667 0 0 0 0-6.933333l-100.949333-71.872a4.266667 4.266667 0 0 0-2.474667-0.789334z" p-id="2206"></path></svg>