<?xml version="1.0" standalone="no"?><!DOCTYPE svg PUBLIC "-//W3C//DTD SVG 1.1//EN" "http://www.w3.org/Graphics/SVG/1.1/DTD/svg11.dtd"><svg t="1613358014917" class="icon" viewBox="0 0 1024 1024" version="1.1" xmlns="http://www.w3.org/2000/svg" p-id="4083" xmlns:xlink="http://www.w3.org/1999/xlink" width="256" height="256"><defs><style type="text/css"></style></defs><path d="M517.519 63.402L64 134.548v430.007l1.06 3.881c0.972 3.557 24.919 88.489 123.049 208.778 59.501 72.938 132.837 116.628 183.881 140.435 49.197 22.945 87.554 32.377 96.744 34.451 15.18 5.088 29.437 7.63 43.545 7.63 13.94 0 27.733-2.482 42.119-7.443 14.469-4.143 149.522-45.321 279.257-172.622 51.917-50.942 88.825-102.162 109.698-152.238 15.849-38.021 16.669-61.971 16.646-66.981V134.653l-442.48-71.251zM900 560.406l-0.004 0.083-0.024-0.307 0.019 0.427c-0.122 2.314-1.437 19.818-13.916 48.16-12.521 28.436-39.068 73.736-94.441 128.069-63.982 62.782-129.572 102.328-173.327 124.447-47.671 24.1-80.565 33.36-80.841 33.437l-1.025 0.281-1.003 0.353c-17.304 6.088-30.075 5.944-48.811-0.547l-1.864-0.646-1.933-0.396c-1.467-0.301-147.903-31.499-248.229-154.481-46.633-57.163-74.522-104.917-89.708-134.912-12.422-24.537-18.596-41.505-20.893-48.408V185.87l393.396-61.714L900 185.765v374.641z" p-id="4084" ></path><path d="M463.737 298.789l-103.47 226.884c-2.962 6.974 2.764 14.453 11.064 14.453h99.533c7.566 0 13.193 6.294 11.567 12.94l-22.891 93.578-7.544 45.987-3.115 18.989h10.66l202.605-243.944c5.834-7.024 0.26-17.026-9.489-17.026H539.603c-8.634 0-14.366-8.041-10.763-15.097l65.646-128.724c3.393-7.034-2.34-14.891-10.866-14.891H474.801c-4.91 0-9.312 2.725-11.064 6.851z" p-id="4085" ></path></svg>