<?xml version="1.0" standalone="no"?><!DOCTYPE svg PUBLIC "-//W3C//DTD SVG 1.1//EN" "http://www.w3.org/Graphics/SVG/1.1/DTD/svg11.dtd"><svg t="1602294268480" class="icon" viewBox="0 0 1024 1024" version="1.1" xmlns="http://www.w3.org/2000/svg" p-id="2400" xmlns:xlink="http://www.w3.org/1999/xlink" width="200" height="200"><defs><style type="text/css"></style></defs><path d="M74.940108 119.951995c0-11.310384 9.031105-22.261244 20.499748-24.52676 0 0 357.915589-70.987925 414.854555-70.987925 56.944127 0 416.106868 71.094578 416.106868 71.094578a25.761872 25.761872 0 0 1 19.995727 24.406346v370.643426c0 136.158098-91.632171 309.261156-206.070892 384.909131 0 0-169.710803 124.183713-227.506434 124.183713-57.793911 0-231.31842-125.324213-231.31842-125.324213C167.418623 798.56642 74.940108 626.769001 74.940108 490.58338V119.951995z m404.930661 169.117331l-92.499157 237.929189c-3.278721 8.446233 1.357246 15.647034 10.667026 15.647034h88.817906c9.082711 0 15.184298 7.443351 13.286905 16.618954l-28.794602 138.855388c-7.553444 36.403094 3.863593 41.379663 25.459114 11.267378l177.143833-247.041144c5.420383-7.515599 2.181227-13.723839-7.147475-13.950907l-110.721346-2.809103c-9.492121-0.227068-13.844254-7.262729-10.142361-15.671118l62.147764-141.310128c3.645126-8.296575-0.827421-15.220422-10.142361-15.220422h-95.146561c-9.161841 0-19.565674 6.994376-22.926965 15.643594v0.041285z m0 0" p-id="2401" ></path></svg>