<?xml version="1.0" standalone="no"?><!DOCTYPE svg PUBLIC "-//W3C//DTD SVG 1.1//EN" "http://www.w3.org/Graphics/SVG/1.1/DTD/svg11.dtd"><svg t="1603438652332" class="icon" viewBox="0 0 1024 1024" version="1.1" xmlns="http://www.w3.org/2000/svg" p-id="5928" xmlns:xlink="http://www.w3.org/1999/xlink" width="200" height="200"><defs><style type="text/css"></style></defs><path d="M738.678346 911.792324l-1.715165-1.674206-161.819484 48.188476 44.681346-162.403152-1.162216-1.126378c-6.635387-6.451071-7.572329-16.260795-2.099158-21.867082l277.667406-284.871103c2.385872-2.452431 5.596048-3.630007 9.00078-3.732405V193.527009c0-55.878562-54.414272-101.174297-121.546369-101.174296h-9.850683v54.363073c0 49.232935-39.914722 89.142537-89.147657 89.142537-49.227815 0-89.142537-39.909602-89.142537-89.142537V92.352713H389.455251v54.363073c0 49.232935-39.914722 89.142537-89.142537 89.142537s-89.142537-39.909602-89.142537-89.142537V92.352713h-11.862803c-67.126977 0-121.541249 45.295734-121.541249 101.174296v729.303814c0 55.863203 54.414272 101.169177 121.541249 101.169177h582.378112c67.132097 0 121.546369-45.305974 121.546369-101.169177V767.01186l-142.624987 146.301074c-5.48341 5.626767-15.282894 4.961181-21.928522-1.52061z m-220.380872-91.897042c-19.378812 8.422232-42.771625-2.390992-52.233195-24.191516l-32.99774-75.933201-147.074179-0.52223a29.608368 29.608368 0 0 1-6.850423-0.885742l-30.550429 76.706306c-8.688466 21.841483-31.635847 33.187176-51.239935 25.374212-19.614328-7.807844-28.48199-31.815044-19.788404-53.651407L307.741685 439.901602c7.413612-18.610828 25.169417-29.557169 42.402992-27.560409 17.412772-2.918342 36.033839 7.690086 44.235915 26.52107l141.846763 326.347393c9.456451 21.780044 1.428451 46.258275-17.929881 54.685626z m26.454511-312.528789v-43.104418h-43.242655a30.724506 30.724506 0 1 1 0-61.449011h43.242655v-41.107658a30.729625 30.729625 0 0 1 61.454131 0v41.107658h43.242655a30.724506 30.724506 0 0 1 0 61.449011H606.206116v43.104418a30.729625 30.729625 0 0 1-61.454131 0z"  p-id="5929"></path><path d="M301.423732 662.396992l106.862502 0.378872-55.847843-128.49407zM301.413492 198.068359c28.185036 0 51.035139-22.850103 51.035139-51.03002V51.828723c0-28.185036-22.850103-51.040259-51.035139-51.040259-28.174797 0-51.0249 22.855223-51.0249 51.040259v95.209616c0 28.179916 22.850103 51.030019 51.0249 51.03002zM682.277554 198.068359c28.179916 0 51.030019-22.850103 51.03002-51.03002V51.828723c0-28.185036-22.850103-51.040259-51.03002-51.040259s-51.030019 22.855223-51.030019 51.040259v95.209616c0 28.179916 22.850103 51.030019 51.030019 51.03002zM986.455791 606.339233l-68.749985-67.034819c-3.809204-3.706806-10.51115-2.97978-14.99618 1.623007l-227.297854 233.211336c-4.49015 4.592548-5.037979 11.335453-1.239015 15.0269l68.739745 67.050179c3.809204 3.696566 10.52139 2.954181 15.0013-1.633248l227.308094-233.206216c4.49015-4.602788 5.027739-11.335453 1.233895-15.037139zM651.235615 842.822184l-15.062738 54.762424 54.009799-16.614067z"  p-id="5930"></path></svg>