<?xml version="1.0" standalone="no"?><!DOCTYPE svg PUBLIC "-//W3C//DTD SVG 1.1//EN" "http://www.w3.org/Graphics/SVG/1.1/DTD/svg11.dtd"><svg t="1613358120311" class="icon" viewBox="0 0 1024 1024" version="1.1" xmlns="http://www.w3.org/2000/svg" p-id="5817" xmlns:xlink="http://www.w3.org/1999/xlink" width="256" height="256"><defs><style type="text/css"></style></defs><path d="M336 224v96h352V224h-352z m352 208h-352v96h352v-96z m160-432h-672C140.928 0 128 12.928 128 48v928c0 29.312 31.104 60.448 80 32l305.888-172.96L816 1008c42.688 21.312 80 4.448 80-32v-928C895.936 12.896 883.136 0 848 0zM800 880L544 736c-32-16-32-16-64 0l-256 144V96h576v784z" p-id="5818"></path></svg>