<?xml version="1.0" standalone="no"?><!DOCTYPE svg PUBLIC "-//W3C//DTD SVG 1.1//EN" "http://www.w3.org/Graphics/SVG/1.1/DTD/svg11.dtd"><svg t="1612768020595" class="icon" viewBox="0 0 1024 1024" version="1.1" xmlns="http://www.w3.org/2000/svg" p-id="9041" xmlns:xlink="http://www.w3.org/1999/xlink" width="256" height="256"><defs><style type="text/css"></style></defs><path d="M789.330818 643.218554c-47.517223 0-90.109274 20.977777-119.110795 54.141084L386.844024 540.252461c3.855818-13.588483 5.972015-27.906583 6.022157-42.717917l282.563494-165.220972c28.77844 29.861098 69.155033 48.466851 113.902166 48.466851 87.379093 0 158.213371-70.835302 158.213371-158.213371 0-87.377046-70.835302-158.212348-158.213371-158.212348-87.37807 0-158.212348 70.836325-158.212348 158.212348 0 1.689479 0.073678 3.359514 0.12689 5.034666l-279.240819 163.278737c-28.950356-31.990598-70.794369-52.094472-117.338429-52.094472-87.37807 0-158.212348 70.834278-158.212348 158.213371 0 87.377046 70.835302 158.213371 158.212348 158.213371 30.777981 0 59.483766-8.81783 83.784218-24.02416l312.746934 173.392072c1.683339 85.919858 71.811536 155.064658 158.133553 155.064658 87.379093 0 158.213371-70.836325 158.213371-158.212348C947.545212 714.051809 876.709911 643.218554 789.330818 643.218554z" p-id="9042"></path></svg>