<?xml version="1.0" standalone="no"?><!DOCTYPE svg PUBLIC "-//W3C//DTD SVG 1.1//EN" "http://www.w3.org/Graphics/SVG/1.1/DTD/svg11.dtd"><svg t="1615966088843" class="icon" viewBox="0 0 1138 1024" version="1.1" xmlns="http://www.w3.org/2000/svg" p-id="2296" xmlns:xlink="http://www.w3.org/1999/xlink" width="284.5" height="256"><defs><style type="text/css"></style></defs><path d="M1032.311779 901.799294h-238.007189a35.523461 35.523461 0 0 1-35.523461-35.523461 35.523461 35.523461 0 0 1 35.523461-35.523461h238.007189a35.523461 35.523461 0 0 0 35.523462-35.523461v-568.375378a35.523461 35.523461 0 0 0-35.523462-35.523461H618.108223a35.523461 35.523461 0 0 1-35.523461-35.523461 36.23393 36.23393 0 0 1 35.523461-35.523461h414.203556A106.570383 106.570383 0 0 1 1136.750755 228.274471v568.375378a106.570383 106.570383 0 0 1-104.438976 105.149445zM568.375378 901.799294H106.570383a106.570383 106.570383 0 0 1-106.570383-106.570383v-568.375378a106.570383 106.570383 0 0 1 106.570383-106.570383h273.530651a35.523461 35.523461 0 0 1 35.523461 35.523461 35.523461 35.523461 0 0 1-35.523461 35.523461H106.570383a35.523461 35.523461 0 0 0-35.523461 35.523461v568.375378a35.523461 35.523461 0 0 0 35.523461 35.523461H568.375378a36.23393 36.23393 0 0 1 35.523461 35.523461 35.523461 35.523461 0 0 1-35.523461 35.523461z" p-id="2297"></path><path d="M380.101034 192.75101A33.392053 33.392053 0 0 1 355.234611 182.804441L233.033905 60.603735a35.523461 35.523461 0 0 1 0-49.732845 35.523461 35.523461 0 0 1 51.153784 0l120.779767 121.490237a35.523461 35.523461 0 0 1 0 50.443314 32.681584 32.681584 0 0 1-24.866422 9.946569zM916.505296 1024a36.23393 36.23393 0 0 1-25.576892-10.657038l-121.490237-121.490237a35.523461 35.523461 0 0 1 0-50.443315 34.102523 34.102523 0 0 1 49.732846 0l122.200706 122.200706a34.102523 34.102523 0 0 1 0 49.732846 35.523461 35.523461 0 0 1-24.866423 10.657038zM292.00285 678.001489a35.523461 35.523461 0 0 1-35.523461-35.523461V441.415238a35.523461 35.523461 0 0 1 71.046922 0V639.636151a35.523461 35.523461 0 0 1-35.523461 38.365338z" p-id="2298"></path><path d="M497.328455 678.001489H298.397073A35.523461 35.523461 0 0 1 262.873612 639.636151a36.23393 36.23393 0 0 1 35.523461-35.523461H497.328455a35.523461 35.523461 0 0 1 35.523461 35.523461 35.523461 35.523461 0 0 1-35.523461 38.365338zM852.563066 610.506913a36.23393 36.23393 0 0 1-35.523461-35.523461V373.920662a35.523461 35.523461 0 0 1 35.523461-35.523461 35.523461 35.523461 0 0 1 35.523461 35.523461v201.06279a35.523461 35.523461 0 0 1-35.523461 35.523461z" p-id="2299"></path><path d="M848.300251 409.444123H650.079338a36.23393 36.23393 0 0 1-35.523461-35.523461 35.523461 35.523461 0 0 1 35.523461-35.523461h198.220913a35.523461 35.523461 0 0 1 35.523461 35.523461 36.23393 36.23393 0 0 1-35.523461 35.523461z"  p-id="2300"></path></svg>